<?xml version="1.0" encoding="UTF-8"?>
<svg id="Layer_2" data-name="Layer 2" xmlns="http://www.w3.org/2000/svg" viewBox="0 0 84.38 53.85">
  <defs>
    <style>
      .cls-1 {
        font-family: Chillax-Semibold, Chillax;
        font-size: 22.98px;
        font-weight: 600;
      }

      .cls-1, .cls-2 {
        fill: #fff;
      }
    </style>
  </defs>
  <g id="Layer_1-2" data-name="Layer 1">
    <g>
      <path class="cls-2" d="M84.23,38.8c-.92,6.2-6.28,11-12.19,13.1-5.91,2.1-12.33,2.01-18.6,1.89-5.6-.1-11.21-.21-16.81-.31-5.74-.11-11.54.02-17.26-.49-4.62-.41-9.37-1.48-13.05-4.47-1.15-.93-2.16-2.04-3-3.26C.86,41.69-.17,37.22.02,32.91c.05-1.03.08-2.18.46-3.14.43-1.08.87-2.13,1.49-3.13,1.21-1.95,2.83-3.64,4.75-4.9.77-.51,1.59-.95,2.38-1.44.75-.46,1.47-.95,2.09-1.56,1.39-1.36,2.18-3.17,3-4.96.23-.5.45-.99.7-1.48,1.56-3.09,3.87-5.76,6.64-7.82C24.97,1.94,29.11.33,33.38.05c.29-.02.57-.03.86-.04,2.26-.06,4.52.25,6.7.88.4.12.8.24,1.2.38,4.49,1.57,8.51,4.53,11.2,8.46-2.02-1.75-4.44-3-7.01-3.72-4.31-1.21-9.06-.93-13.12.99-.22.11-.45.22-.66.33-.24.14-.47.29-.7.44-3.99,2.61-6.9,6.83-7.86,11.5-.96,4.67.07,9.73,2.84,13.61-2.66-2.15-4.64-5.12-5.62-8.4-.22.04-.44.08-.66.12-4.92,1.01-10.37,3.95-12.78,7.97-1.3,2.17-2.12,4.68-2.02,7.21.1,2.53,1.18,5.06,3.14,6.66,2.65,2.17,6.35,2.34,9.77,2.41,9.99.22,19.99.44,29.99.66,7.3.16,14.83.28,21.64-2.37,4.11-1.61,8-4.4,9.74-8.46,1.95-4.55.91-9.77-.17-14.6,1.56,2.51,3,5.24,3.82,8.07.63,2.17.89,4.41.55,6.65Z"/>
      <text class="cls-1" transform="translate(21.41 40.79)"><tspan x="0" y="0">nine</tspan></text>
    </g>
  </g>
</svg>